<svg xmlns="http://www.w3.org/2000/svg" enable-background="new 0 0 68 68" viewBox="0 0 68 68"><path fill="#F37D7F" d="M48.78557,52.46332v6.23271c0,0.49863-0.40422,0.90285-0.90285,0.90285H2.90409
			c-0.49863,0-0.90285-0.40422-0.90285-0.90285v-6.23271c0-1.70726,0.97705-3.26391,2.51452-4.00616l13.19641-6.37088h15.36247
			l13.19641,6.37088C47.80851,49.19941,48.78557,50.75607,48.78557,52.46332z"/><path fill="#EF3F3E" d="M48.78804,52.46334v6.23004c0,0.5-0.40997,0.90997-0.90997,0.90997H2.90804
				c-0.41998,0-0.76996-0.27997-0.87-0.66998c27.04004-2.91003,36.92004-8.33002,40.48004-12.28998l3.75,1.81
				C47.80806,49.20339,48.78804,50.75338,48.78804,52.46334z"/><rect width="13.872" height="11.422" x="18.457" y="36.691" fill="#FAC41D"/><path fill="#FAC41D" d="M14.49625,25.91035c0,0,1.15171,12.22181,8.8664,15.49503c1.29102,0.54776,2.77049,0.54776,4.06151,0
			c7.7147-3.27322,8.8664-15.49503,8.8664-15.49503l-1.04786-6.71348l-5.3504-5.40499l-11.30135,1.91086l-3.87631,3.49414
			l-0.21839,3.05737V25.91035z"/><path fill="#F4A01E" d="M36.28804,25.91335c0,0-1.14996,12.22003-8.85999,15.48999c-1.28998,0.55005-2.77002,0.55005-4.07001,0
			c-1.70996-0.72998-3.09998-1.89996-4.22998-3.26996c5.62-0.60004,10.39996-6.20001,11.08002-13.44
			c0.38-3.98999-0.56-7.73004-2.39001-10.54999l2.07001-0.35004l5.34998,5.40002L36.28804,25.91335z"/><path fill="#838789" d="M14.5327,26.33371c0,0,0.63994-5.66237,2.13312-7.24995c0,0,7.67925,4.33939,14.82521-1.6405
		c0,0,0.74659,8.09666,4.79953,8.46709c0,0,6.4527-13.38859-3.99961-14.71157c0,0-4.7462-6.0328-14.39859-0.37043
		C17.89237,10.82835,9.25322,14.95605,14.5327,26.33371z"/><path fill="#FFF" d="M17.71256 42.08373l7.68085 6.0284-5.64004 4.7015c-.40628.33867-1.02635.1552-1.18294-.35001l-2.90944-9.38707L17.71256 42.08373zM33.07425 42.08373l-7.68084 6.0284 5.64004 4.7015c.40628.33867 1.02635.1552 1.18293-.35001l2.90944-9.38707L33.07425 42.08373z"/><path fill="#96C93D" d="M57.56578,20.04919H48.7905c-4.65881,0-8.43547,3.7767-8.43547,8.43547v0.00005
			c0,4.48984,3.51052,8.14982,7.93513,8.41013v6.21828l6.19299-6.193h3.08262c4.65876,0,8.43547-3.77665,8.43547-8.43541v-0.00005
			C66.00124,23.82589,62.22454,20.04919,57.56578,20.04919z"/><path fill="#72B844" d="M65.99806,28.48336c0,4.66003-3.77002,8.44-8.42999,8.44h-3.08002l-6.20001,6.19v-6.21997
			c-1.41998-0.08002-2.73999-0.52002-3.88-1.22003c12.60004-3.15997,17.34003-8.89001,19.09003-13.17999l0.02997,0.02997
			C65.05806,24.04336,65.99806,26.15334,65.99806,28.48336z"/><path fill="#010101" d="M46.71002,47.55999c-1.64825-0.7958,4.08287,1.97126-13.38-6.46002v-0.00995v-3.54004
			c3.02997-4.5,3.81-10.21997,3.94-11.35998c-0.01001-0.01001-0.01001-0.01001,0-0.01001
			c0.52997-1.16998,3.44995-7.97998,1.04999-12.39996c-1.04999-1.92004-2.90002-3.11005-5.53003-3.52002
			c-0.77997-0.81-3.14996-2.85999-7.14001-2.85999c-2.58997,0-5.37,0.87-8.18994,2.52997
			C17.37,9.97003,8.07001,14.58001,13.57001,26.60998c0.23999,1.75,1.13,6.86004,3.89001,10.95001v3.53003v0.00995
			c-18.33602,8.85284-12.0119,5.79949-13.38,6.46002C2.21002,48.46002,1,50.39001,1,52.46002v6.23999
			c0,1.04999,0.84998,1.89996,1.89996,1.89996H47.88c1.04999,0,1.90997-0.84998,1.90997-1.89996v-6.23999
			C49.78998,50.39001,48.58002,48.46002,46.71002,47.55999z M33.91998,43.59997v0.01001
			c-0.03167,0.10214-2.57228,8.29438-2.53998,8.19c-0.10064-0.08371-4.69174-3.90262-4.40002-3.65997
			c0.10286-0.0807,6.32332-4.96099,6.22003-4.88l0.13,0.06L33.91998,43.59997z M18.39996,11.69
			c2.58002-1.52002,5.02002-2.28998,7.25-2.28998c2.33448,0,4.54906,0.83906,6.11005,2.73999
			c0.2571,0.07419,3.43314,0.08419,4.79999,2.58997c1.10999,2.04004,0.72998,4.90003,0.12,7.16004
			c-0.32001,1.17999-0.70001,2.19-0.96997,2.83997c-0.25-0.10999-0.47003-0.27997-0.69-0.47998
			c-2.42795-2.27926-2.69323-8.69952-2.71002-8.79999c-2.50333,2.10891-4.84568,4.14996-9.27002,4.14996
			c-3.26026,0-5.26985-1.12354-6.57001-1.76996c-0.27907,0.44889-1.33249,0.73681-2.26996,4.60999
			C13.84998,21,13.77002,19.72998,13.87,18.60998C14.29999,13.77002,18.13,11.83001,18.39996,11.69z M15.54999,26.28003
			C15.76001,24.5,16.29999,21.73999,17,20.34997c1.14001,0.49005,3.33002,1.25,6.03998,1.25
			c2.78003,0,5.35999-0.77997,7.70001-2.34998c0.44,2.38,1.59998,6.40002,4.44,7.42999
			C34.90997,28.39001,34.13,32.34002,32.13,35.69c-1.20399,2.05545-2.87913,3.8533-5.10004,4.78998
			c-1.02997,0.45001-2.23999,0.44-3.27997,0c-2.22634-0.93897-3.86209-2.72691-5.10004-4.78998
			C16.45001,32,15.71997,27.57001,15.54999,26.28003z M22.96997,42.33001c0.77002,0.32001,1.58002,0.48999,2.42004,0.48999
			c0.83997,0,1.65997-0.16998,2.41998-0.48999c1.25031-0.53817,2.43738-1.31331,3.52002-2.37v1.13v1.08997
			c-0.15559,0.12207-6.32492,4.96201-5.94,4.66003c-0.10279-0.08078-6.32179-4.96793-5.92999-4.66003c0-0.15705,0-2.33344,0-2.20996
			C20.38454,40.89455,21.62437,41.75084,22.96997,42.33001z M16.87,43.59997L17.46002,43.32l0.12994-0.06
			c0.10497,0.08247,4.65752,3.66,6.21002,4.88c-0.10054,0.08382-4.68145,3.90295-4.39001,3.65997
			c-0.03112-0.10055-1.90497-6.14251-2.53998-8.19V43.59997z M47.78998,58.59997H3v-6.13995c0-1.31,0.77002-2.53003,1.95001-3.10004
			l10.09998-4.88L17.62,52.76001c0.21997,0.72998,0.89001,1.22998,1.65997,1.22998c0.41003,0,0.80005-0.14996,1.11005-0.40997
			l5-4.17004l5,4.17004c0.32001,0.26001,0.70996,0.40997,1.12,0.40997c0.76001,0,1.42999-0.5,1.65997-1.22998l2.57001-8.28003
			l10.09998,4.88c1.18005,0.57001,1.95001,1.79004,1.95001,3.10004V58.59997z"/><path fill="#010101" d="M57.57001,19.04999h-8.78003c-5.20001,0-9.44,4.23004-9.44,9.42999c0,4.67004,3.42004,8.59002,7.94,9.31
			v5.32001c0,0.41003,0.23999,0.77002,0.62,0.92999C48.24181,44.17838,48.69963,44.12037,49,43.82l5.89996-5.90002h2.67004
			c5.20001,0,9.42999-4.22998,9.42999-9.44C67,23.28003,62.77002,19.04999,57.57001,19.04999z M57.57001,35.91998h-3.09003
			c-0.26001,0-0.51996,0.11005-0.70001,0.29004l-4.48999,4.48999v-3.81c0-0.52002-0.40997-0.96002-0.94-0.98999
			c-3.91998-0.23004-7-3.49005-7-7.42004c0-4.09998,3.34003-7.42999,7.44-7.42999h8.78003C61.66998,21.04999,65,24.38,65,28.47998
			C65,32.58001,61.66998,35.91998,57.57001,35.91998z"/><path fill="#010101" d="M50.30011 24.5307h-1.34277c-.55273 0-1 .44775-1 1s.44727 1 1 1h1.34277c.55273 0 1-.44775 1-1S50.85284 24.5307 50.30011 24.5307zM57.39972 24.5307h-1.34375c-.55273 0-1 .44775-1 1s.44727 1 1 1h1.34375c.55273 0 1-.44775 1-1S57.95245 24.5307 57.39972 24.5307zM50.30011 29.90472h-1.34277c-.55273 0-1 .44775-1 1s.44727 1 1 1h1.34277c.55273 0 1-.44775 1-1S50.85284 29.90472 50.30011 29.90472zM57.39972 29.90472h-1.34375c-.55273 0-1 .44775-1 1s.44727 1 1 1h1.34375c.55273 0 1-.44775 1-1S57.95245 29.90472 57.39972 29.90472z"/><path fill="#FFF" d="M7.71515 55.5971c-.40918 0-.74316-.32813-.75-.73828-.01367-.88086-.00293-1.89941.00684-2.81885l.00391-.43652c.00391-.41162.33887-.74268.75-.74268.00195 0 .00488 0 .00684 0 .41504.00391.74707.34277.74316.75732l-.00488.43701c-.00879.90723-.01953 1.91162-.00586 2.78027.00586.41455-.32422.75537-.73828.76172C7.72296 55.5971 7.71906 55.5971 7.71515 55.5971zM37.86945 56.58636h-2c-.41406 0-.75-.33594-.75-.75s.33594-.75.75-.75h2c.41406 0 .75.33594.75.75S38.28351 56.58636 37.86945 56.58636zM44.36945 56.58636h-3c-.41406 0-.75-.33594-.75-.75s.33594-.75.75-.75h3c.41406 0 .75.33594.75.75S44.78351 56.58636 44.36945 56.58636z"/></svg>